<svg xmlns="http://www.w3.org/2000/svg" xmlns:xlink="http://www.w3.org/1999/xlink" viewBox="0 0 608.6 151.4"><g fill="#231f20"><path d="M0 .9h14.8v67H0zm29.5 0h14.8v134H29.5zm59.3 0h14.8v134H88.8zM59.3 34.4h14.8v67H59.3zm59.5 33.5h14.8v67h-14.8zm130.1-9.8V.8h10.7v57.3h-10.7zm56.9-23.9V58h-10.2V36.4c0-3.5-.8-5.9-2.4-7.1a8.66 8.66 0 0 0-5.4-1.9c-2.2 0-4.4.7-6.1 2.1-1.8 1.4-2.7 3.8-2.7 7.1V58h-10.2V19.3h9.7l.3 3.8c1.2-1.6 2.8-2.9 4.7-3.6 2.1-.9 4.4-1.4 6.6-1.4 5.1 0 8.9 1.4 11.7 4.2 2.6 2.8 4 6.8 4 11.9zm44.2 0V58h-10.2V36.4c0-3.5-.8-5.9-2.4-7.1a8.66 8.66 0 0 0-5.4-1.9c-2.2 0-4.4.7-6.1 2.1-1.8 1.4-2.7 3.8-2.7 7.1V58H313V19.3h9.7l.3 3.8c1.2-1.6 2.8-2.9 4.7-3.6 2.1-.9 4.4-1.4 6.6-1.4 5.1 0 9 1.4 11.7 4.2 2.6 2.8 4 6.8 4 11.9zm25.5-16c2.8 0 5.6.5 8.2 1.5 4.8 1.9 8.7 5.8 10.5 10.7 1 2.6 1.5 5.4 1.5 8.2s-.5 5.6-1.5 8.2c-1.9 4.9-5.7 8.7-10.5 10.7-2.6 1-5.4 1.6-8.2 1.5-2.8 0-5.7-.5-8.3-1.5-2.4-1-4.6-2.4-6.4-4.2s-3.2-4-4.1-6.5c-1-2.6-1.5-5.4-1.5-8.2s.5-5.6 1.5-8.2c.9-2.4 2.3-4.6 4.1-6.5 1.8-1.8 4-3.3 6.4-4.2 2.6-1 5.4-1.5 8.3-1.5zm0 31.7c2.8.1 5.4-1.1 7.3-3.1 1.9-2.3 2.9-5.2 2.8-8.1.1-3-.9-5.9-2.8-8.1-3.8-4-10.1-4.2-14.1-.4l-.4.4c-1.9 2.3-2.9 5.2-2.8 8.1-.1 3 .9 5.9 2.8 8.1 1.7 2 4.4 3.2 7.2 3.1zm61.8-30.6l-16.1 38.8h-10.1l-15.4-38.8h11l9.7 26.7 10.3-26.7h10.6z"/><path d="M463.4 58.1l-.3-1.9-.3-2.1c-1.2 1.6-2.7 2.8-4.5 3.6-2.2 1-4.6 1.5-7 1.4-4.2 0-7.6-1.1-10.2-3.4s-4-5.7-3.8-9.2c0-3.9 1.2-6.9 3.8-9s5.9-3.2 10.2-3.2h11.3V33c0-2.3-.7-4-2.1-5.1-1.6-1.1-3.6-1.7-5.6-1.6-3.9-.2-7.5 1.9-9.2 5.5l-7.4-4.2c3.3-6.3 9.1-9.5 17.3-9.5 5 0 9 1.3 12.2 3.8s4.8 6.7 4.8 12.5v14.8c0 1.9.1 3.6.2 5.3 0 1.2.2 2.3.5 3.4l-9.9.2zm-.7-16.8h-9c-1.6-.1-3.3.4-4.6 1.4a4.41 4.41 0 0 0-1.6 3.7c-.1 1.4.6 2.8 1.7 3.8 1.4 1 3.1 1.4 4.8 1.3 1.1 0 2.2-.2 3.3-.5 1-.3 2-.9 2.8-1.6.8-.8 1.5-1.8 1.9-2.9.5-1.4.8-2.9.7-4.3v-.9zm40.4-13.5h-7.4v30.3h-10V27.8h-7.5v-8.4h7.5v-12h10v12h7.4v8.4zm5.7-21.7c0-1.6.6-3.2 1.8-4.3 2.4-2.3 6.3-2.3 8.8 0 1.2 1.1 1.8 2.7 1.8 4.3 0 1.7-.6 3.3-1.8 4.4-2.4 2.3-6.3 2.3-8.8 0-1.2-1.1-1.8-2.7-1.8-4.4zm11.4 13.2v38.8H510V19.3h10.2zm25.9-1.1c2.8 0 5.6.5 8.2 1.5 4.8 1.9 8.7 5.8 10.5 10.7 1 2.6 1.5 5.4 1.5 8.2s-.5 5.6-1.5 8.2c-1.9 4.9-5.7 8.7-10.5 10.7-2.6 1-5.4 1.6-8.2 1.5-2.8 0-5.7-.5-8.3-1.5-2.4-1-4.6-2.4-6.4-4.2s-3.2-4-4.1-6.5c-1-2.6-1.5-5.4-1.5-8.2s.5-5.6 1.5-8.2c.9-2.4 2.3-4.6 4.1-6.5 1.8-1.8 4-3.3 6.4-4.2 2.6-1 5.5-1.5 8.3-1.5zm0 31.7c2.7.1 5.4-1.1 7.2-3.1 1.9-2.3 2.9-5.2 2.8-8.1.1-3-.9-5.9-2.8-8.1-3.8-4-10.1-4.2-14.1-.4l-.4.4c-1.9 2.3-2.9 5.2-2.8 8.1-.1 3 .9 5.9 2.8 8.1a9.46 9.46 0 0 0 7.3 3.1zm62.5-15.7V58h-10.2V36.4c0-3.5-.8-5.9-2.4-7.1a8.66 8.66 0 0 0-5.4-1.9c-2.2 0-4.4.7-6.2 2.1s-2.7 3.8-2.7 7.1V58h-10.2V19.3h9.7l.3 3.8c1.2-1.6 2.8-2.9 4.7-3.6 2.1-.9 4.4-1.4 6.6-1.4 5.1 0 9 1.4 11.7 4.2s4.1 6.8 4.1 11.9zM287.7 95.1c-.8-3-2.7-5.5-5.2-7.3-2.6-1.7-5.7-2.6-8.9-2.5-2.4 0-4.7.4-6.9 1.4a15.52 15.52 0 0 0-5.3 3.9c-1.5 1.8-2.6 3.8-3.4 6.1-1.6 5.2-1.6 10.7 0 15.9.7 2.2 1.9 4.2 3.4 6 1.5 1.6 3.3 2.9 5.3 3.8 5.3 2.2 11.3 1.7 16.2-1.3 2.6-1.6 4.6-4 5.6-6.8l10.2 4.4c-1.9 4.8-5.4 8.9-9.9 11.5-8.2 4.6-18 5.4-26.9 2-3.3-1.4-6.3-3.4-8.8-6-2.5-2.7-4.4-5.8-5.7-9.3-2.7-7.8-2.7-16.3 0-24.2 1.3-3.5 3.2-6.7 5.7-9.4 2.5-2.6 5.5-4.7 8.8-6.1 3.6-1.5 7.5-2.2 11.4-2.2 6.1 0 11.4 1.5 15.6 4.5 4.2 2.9 7.2 7.2 8.6 12.1l-9.8 3.5z"/><use xlink:href="#B"/><path d="M362.9 93.9a17.4 17.4 0 0 1 4.5.6v9.4c-1.4-.4-2.9-.6-4.4-.6-2.9-.2-5.7.9-7.6 3-1.8 2-2.7 4.8-2.7 8.5v18.4h-10.2V94.5h9.4l.5 4.5c.9-1.7 2.3-3.1 4.1-3.8 2-.9 4.2-1.3 6.4-1.3zm32 40.4c-2.6 0-5.2-.5-7.6-1.5-2.1-.8-4-2.2-5.3-4v22.6h-9.9V94.5h9.1l.5 4.4c1.3-1.7 3.1-3.1 5-4 2.5-1.1 5.2-1.7 7.9-1.6 2.7 0 5.3.4 7.8 1.4 2.3.9 4.4 2.2 6.1 4 1.8 1.8 3.1 4 4 6.4 1 2.8 1.5 5.8 1.4 8.7 0 3-.4 5.9-1.5 8.7-.9 2.4-2.2 4.6-4 6.5-1.7 1.7-3.7 3.1-6 4s-4.9 1.3-7.5 1.3zm8.8-20.5c.1-3-.9-6-3-8.3-2-2.1-4.8-3.2-7.7-3.1-2.9-.1-5.7 1-7.8 3.1-4 4.8-4 11.8 0 16.5 2.1 2.1 4.9 3.2 7.8 3.1 2.9.1 5.7-1 7.7-3.1 2.1-2.2 3.1-5.2 3-8.2z"/><use xlink:href="#B" x="116.5"/><path d="M479.4 93.9a17.4 17.4 0 0 1 4.5.6v9.4c-1.4-.4-2.9-.6-4.4-.6-2.9-.2-5.7.9-7.6 3-1.8 2-2.7 4.8-2.7 8.5v18.4H459V94.5h9.4l.6 4.5c.9-1.7 2.3-3.1 4.1-3.8 2-.9 4.1-1.3 6.3-1.3zm9 39.3V74.9h10.2v34.7L513 94.5h12.7l-16.8 17.7 15.8 21h-12.4l-10.1-14-3.5 3.8v10.2h-10.3z"/></g><defs ><path id="B" d="M326.7 133.2l-.3-1.9-.3-2.1c-1.2 1.6-2.7 2.8-4.5 3.6-2.2 1-4.6 1.5-7 1.4-4.2 0-7.6-1.1-10.2-3.4s-4-5.7-3.9-9.2c0-3.9 1.2-6.9 3.8-9s5.9-3.2 10.3-3.2h11.3v-1.3c0-2.3-.7-4-2.1-5.1-1.6-1.1-3.6-1.7-5.6-1.6-3.9-.2-7.5 1.9-9.2 5.5l-7.4-4.2c3.3-6.3 9.1-9.5 17.3-9.5 5 0 9 1.3 12.2 3.8 3.2 2.6 4.8 6.7 4.8 12.5v14.9c0 1.9.1 3.6.2 5.3 0 1.2.2 2.3.5 3.4l-9.9.1zm-.7-16.8h-9c-1.6-.1-3.3.4-4.6 1.4a4.41 4.41 0 0 0-1.6 3.7c-.1 1.4.6 2.8 1.7 3.8 1.4 1 3.1 1.4 4.8 1.3 1.1 0 2.2-.2 3.3-.5 1-.3 2-.9 2.8-1.6.8-.8 1.5-1.8 1.9-2.9.5-1.4.8-2.9.7-4.3v-.9z"/></defs></svg>